# Blender v2.79 (sub 0) OBJ File: 'axe.blend'
# www.blender.org
mtllib axe.mtl
o Cylinder
v -0.067611 -3.785345 -0.980785
v -0.004583 -3.692510 -1.553438
v -0.004583 -3.847661 -1.463306
v -0.067611 -4.145824 -0.831470
v -0.004583 -4.121491 -1.316941
v -0.004583 -4.361506 -1.119966
v -0.004583 -4.558481 -0.879952
v -0.004583 -4.704846 -0.606121
v -0.067611 -4.590254 -0.000000
v -0.004583 -4.825411 -0.000000
v -0.004583 -4.121491 1.316941
v -0.067611 -3.972938 0.923880
v -0.067611 -3.590254 1.000000
v -0.067611 -3.590254 -1.000000
v -0.067611 -3.972938 -0.923880
v -0.067611 -4.297361 -0.707107
v -0.067611 -4.514134 0.382683
v -0.004583 -4.704846 0.606121
v -0.004583 -4.558481 0.879952
v -0.067611 -4.297361 0.707107
v -0.004583 -4.361506 1.119966
v -0.067611 -4.145824 0.831470
v -0.004583 -3.847661 1.463306
v -0.067611 -3.785344 0.980785
v -0.004583 -3.692509 1.553438
v -0.067611 -4.421724 -0.555570
v -0.067611 -4.514134 -0.382683
v -0.067611 -4.571040 -0.195090
v -0.004583 -4.794978 -0.308998
v -0.067611 -4.571040 0.195090
v -0.004583 -4.794978 0.308998
v -0.067611 -4.421724 0.555570
v -0.004583 -3.582792 1.583871
v 0.056805 -3.785345 -0.980785
v 0.056805 -3.590254 -1.000000
v 0.056805 -3.972938 -0.923880
v 0.056805 -4.145824 -0.831470
v 0.056805 -4.297361 -0.707107
v 0.056805 -4.421724 -0.555570
v 0.056805 -4.514134 -0.382683
v 0.056805 -4.571040 -0.195090
v 0.056805 -4.590254 -0.000000
v 0.056805 -4.571040 0.195090
v 0.056805 -4.514134 0.382683
v 0.056805 -4.421724 0.555570
v 0.056805 -4.297361 0.707107
v 0.056805 -4.145824 0.831470
v 0.056805 -3.972938 0.923880
v 0.056805 -3.785344 0.980785
v 0.056805 -3.581160 1.019214
v -0.005838 -3.582792 -1.583871
v -0.159942 -3.698706 0.159942
v -0.159942 -0.018521 0.159942
v -0.159942 -3.698706 -0.159942
v -0.159942 -0.018521 -0.159942
v 0.159942 -3.698706 0.159942
v 0.159942 -0.018521 0.159942
v 0.159942 -3.698706 -0.159942
v 0.159942 -0.018521 -0.159942
vt 0.592998 0.539429
vt 0.725807 0.566889
vt 0.705292 0.524373
vt 0.579390 0.495742
vt 0.671441 0.460857
vt 0.558048 0.455720
vt 0.625937 0.405072
vt 0.529342 0.420623
vt 0.570461 0.359119
vt 0.494373 0.391794
vt 0.507065 0.324784
vt 0.454476 0.370348
vt 0.438123 0.303479
vt 0.411179 0.357098
vt 0.366268 0.296141
vt 0.366136 0.352556
vt 0.294382 0.303148
vt 0.321080 0.356889
vt 0.225341 0.324142
vt 0.277724 0.369942
vt 0.161789 0.358196
vt 0.237732 0.391209
vt 0.106113 0.403925
vt 0.202637 0.419870
vt 0.060389 0.459552
vt 0.173788 0.454836
vt 0.026322 0.522965
vt 0.152291 0.494764
vt 0.005373 0.558888
vt 0.138974 0.538134
vt -0.001775 0.584294
vt 0.134355 0.583286
vt 0.224688 0.324570
vt 0.293873 0.303572
vt 0.320562 0.357336
vt 0.277127 0.370370
vt 0.506840 0.325345
vt 0.570328 0.359766
vt 0.494132 0.392375
vt 0.454185 0.370875
vt 0.006662 0.562162
vt 0.026852 0.525641
vt 0.152134 0.495144
vt 0.139328 0.538382
vt 0.595540 0.614817
vt 0.134057 0.614144
vt 0.130947 0.585200
vt 0.595600 0.586027
vt 0.730689 0.600807
vt 0.705216 0.525538
vt 0.726086 0.568247
vt 0.592254 0.540162
vt 0.579143 0.496628
vt 0.161024 0.358787
vt 0.237092 0.391632
vt 0.437810 0.303996
vt 0.410826 0.357593
vt 0.000178 0.588201
vt 0.671398 0.461841
vt 0.557835 0.456473
vt 0.105392 0.404919
vt 0.202026 0.420303
vt 0.365877 0.296622
vt 0.365718 0.353038
vt 0.625872 0.405865
vt 0.529130 0.421275
vt 0.060029 0.461242
vt 0.173321 0.455266
vt 0.597668 0.584536
vt 0.596534 0.585374
vt 0.740159 0.469014
vt 0.757474 0.472651
vt 0.841424 0.727751
vt 0.768702 0.472811
vt 0.786105 0.469623
vt 0.763741 0.421940
vt 0.730447 0.601056
vt 0.595540 0.540664
vt 0.925801 0.296265
vt 0.074200 0.296265
vt 0.074200 0.222243
vt 0.925801 0.222243
vt 0.074200 0.148222
vt 0.925801 0.148221
vt 0.074200 0.074200
vt 0.925801 0.074200
vt 0.074200 0.000178
vt 0.925800 0.000178
vt 0.999822 0.222243
vt 0.999822 0.296265
vt 0.000178 0.222243
vt 0.000178 0.296265
vn -0.9911 -0.0526 -0.1227
vn -0.9888 -0.0705 -0.1319
vn -0.9850 -0.1095 -0.1334
vn -0.9801 -0.1533 -0.1258
vn -0.9745 -0.1980 -0.1058
vn -0.9690 -0.2363 -0.0717
vn -0.9656 -0.2588 -0.0255
vn -0.9656 -0.2588 0.0255
vn -0.9690 -0.2363 0.0717
vn -0.9745 -0.1980 0.1058
vn -0.9801 -0.1533 0.1258
vn -0.9850 -0.1095 0.1334
vn -0.9888 -0.0705 0.1319
vn -0.9911 -0.0526 0.1227
vn -0.9938 -0.0179 0.1099
vn 0.9706 -0.2305 0.0699
vn 0.9757 -0.1931 -0.1032
vn 0.9915 -0.0513 0.1195
vn -0.0317 0.9995 -0.0004
vn 0.9915 -0.0513 -0.1195
vn 0.9757 -0.1931 0.1032
vn 0.9706 -0.2305 -0.0699
vn 0.9937 -0.0240 0.1092
vn 0.9893 -0.0687 -0.1285
vn 0.9811 -0.1495 0.1227
vn 0.9673 -0.2525 -0.0249
vn -0.0721 0.9974 -0.0050
vn 0.9858 -0.1067 -0.1300
vn 0.9858 -0.1067 0.1300
vn 0.9673 -0.2525 0.0249
vn 0.9811 -0.1495 -0.1227
vn 0.9893 -0.0687 0.1285
vn -1.0000 0.0000 0.0000
vn 1.0000 -0.0000 -0.0000
vn 0.0000 0.1608 0.9870
vn -0.9938 -0.0219 -0.1091
vn 0.9941 -0.0135 -0.1078
vn 0.0000 0.0000 -1.0000
vn 0.0000 0.0000 1.0000
vn 0.0000 -1.0000 0.0000
vn 0.0000 1.0000 0.0000
usemtl None
s off
f 1/1/1 2/2/1 3/3/1 15/4/1
f 15/4/2 3/3/2 5/5/2 4/6/2
f 4/6/3 5/5/3 6/7/3 16/8/3
f 16/8/4 6/7/4 7/9/4 26/10/4
f 26/10/5 7/9/5 8/11/5 27/12/5
f 27/12/6 8/11/6 29/13/6 28/14/6
f 28/14/7 29/13/7 10/15/7 9/16/7
f 9/16/8 10/15/8 31/17/8 30/18/8
f 30/18/9 31/17/9 18/19/9 17/20/9
f 17/20/10 18/19/10 19/21/10 32/22/10
f 32/22/11 19/21/11 21/23/11 20/24/11
f 20/24/12 21/23/12 11/25/12 22/26/12
f 22/26/13 11/25/13 23/27/13 12/28/13
f 12/28/14 23/27/14 25/29/14 24/30/14
f 24/30/15 25/29/15 33/31/15 13/32/15
f 18/33/16 31/34/16 43/35/16 44/36/16
f 8/37/17 7/38/17 39/39/17 40/40/17
f 25/41/18 23/42/18 48/43/18 49/44/18
f 14/45/19 13/46/19 50/47/19 35/48/19 51/49/19
f 3/50/20 2/51/20 34/52/20 36/53/20
f 19/54/21 18/33/21 44/36/21 45/55/21
f 29/56/22 8/37/22 40/40/22 41/57/22
f 33/58/23 25/41/23 49/44/23 50/47/23
f 5/59/24 3/50/24 36/53/24 37/60/24
f 21/61/25 19/54/25 45/55/25 46/62/25
f 10/63/26 29/56/26 41/57/26 42/64/26
f 13/46/27 33/58/27 50/47/27
f 6/65/28 5/59/28 37/60/28 38/66/28
f 11/67/29 21/61/29 46/62/29 47/68/29
f 31/34/30 10/63/30 42/64/30 43/35/30
f 7/38/31 6/65/31 38/66/31 39/39/31
f 23/42/32 11/67/32 47/68/32 48/43/32
f 1/1/33 15/4/33 4/6/33 16/8/33 26/10/33 27/12/33 28/14/33 9/16/33 30/18/33 17/20/33 32/22/33 20/24/33 22/26/33 12/28/33 24/30/33 13/32/33 14/69/33
f 34/52/34 35/70/34 50/47/34 49/44/34 48/43/34 47/68/34 46/62/34 45/55/34 44/36/34 43/35/34 42/64/34 41/57/34 40/40/34 39/39/34 38/66/34 37/60/34 36/53/34
f 34/71/35 35/72/35 51/73/35 14/74/35 1/75/35 2/76/35
f 2/2/36 1/1/36 14/69/36 51/77/36
f 2/51/37 51/49/37 35/48/37 34/78/37
f 52/79/33 53/80/33 55/81/33 54/82/33
f 54/82/38 55/81/38 59/83/38 58/84/38
f 58/84/34 59/83/34 57/85/34 56/86/34
f 56/86/39 57/85/39 53/87/39 52/88/39
f 54/82/40 58/89/40 56/90/40 52/79/40
f 59/91/41 55/81/41 53/80/41 57/92/41
