# Blender v2.79 (sub 0) OBJ File: 'boxMan4.blend'
# www.blender.org
mtllib boxMan9.mtl
o Cube
v -1.000000 -1.000000 -1.000000
v -1.000000 1.000000 -1.000000
v 1.000000 1.000000 -1.000000
v 0.000000 -1.000000 -1.000000
v -1.000000 -0.000000 -1.000000
v 1.000000 -0.000000 -1.000000
v 0.000000 1.000000 -1.000000
v 0.000000 -0.000000 -1.000000
v -1.000000 -1.000000 0.021028
v 1.000000 -1.000000 0.021029
v -1.000000 1.000000 0.021028
v 1.000000 1.000000 0.021028
v 0.000000 -1.000000 0.021028
v -1.000000 0.000000 0.021028
v 1.000000 0.000000 0.021028
v 0.000000 0.000000 0.021028
v 1.000000 -1.000000 -1.000000
v 1.404973 -2.438870 -0.705653
v 0.404973 -2.438870 -0.705653
v 1.404972 -2.438870 0.315375
v 0.404972 -2.438870 0.315375
v -1.279743 -2.395124 -0.901313
v -0.279743 -2.395124 -0.901312
v -1.279743 -2.395124 0.119715
v -0.279743 -2.395124 0.119716
v -2.053506 1.000000 -1.000001
v -2.053507 0.000000 -1.000001
v -2.053507 1.000000 0.021027
v -2.053507 0.000000 0.021028
v 2.085730 1.000000 -1.000000
v 2.085730 -0.000000 -1.000000
v 2.085729 1.000000 0.021028
v 2.085730 0.000000 0.021028
v 0.500000 1.000000 -1.000000
v -0.500000 1.000000 -1.000000
v 0.500000 1.000000 0.021028
v -0.500000 1.000000 0.021028
v 0.500000 1.963413 -1.000000
v -0.500000 1.963413 -1.000000
v 0.500000 1.963414 0.021028
v -0.500000 1.963414 0.021028
vt 0.879101 0.482387
vt 0.750530 0.482387
vt 0.748286 0.353834
vt 0.750530 0.353816
vt 0.879101 0.353816
vt 0.880472 0.259752
vt 0.751341 0.259752
vt 0.751341 0.130620
vt 0.880472 0.130620
vt 0.615762 0.944401
vt 0.615762 0.815270
vt 0.744893 0.815270
vt 0.744893 0.944401
vt 0.748601 0.815961
vt 0.748601 0.687390
vt 0.877155 0.685146
vt 0.877173 0.687390
vt 0.877173 0.815961
vt 0.748480 0.000496
vt 0.877612 0.000496
vt 0.877612 0.129628
vt 0.748480 0.129628
vt 0.748601 0.816954
vt 0.877733 0.816954
vt 0.877733 0.946085
vt 0.748601 0.946085
vt 0.482922 0.689307
vt 0.614769 0.689307
vt 0.614769 0.818438
vt 0.482922 0.818438
vt 0.615762 0.684153
vt 0.615762 0.548112
vt 0.744893 0.548113
vt 0.744893 0.684153
vt 0.225183 0.825845
vt 0.225183 0.693998
vt 0.354314 0.693998
vt 0.354314 0.825845
vt 0.358022 0.537997
vt 0.358022 0.353816
vt 0.484645 0.379142
vt 0.484645 0.563324
vt 0.470253 0.000496
vt 0.610454 0.000496
vt 0.610454 0.129628
vt 0.470253 0.129628
vt 0.000496 0.452828
vt 0.000496 0.256098
vt 0.129859 0.281572
vt 0.129859 0.478301
vt 0.750348 0.130620
vt 0.750348 0.262467
vt 0.621217 0.262467
vt 0.621216 0.130620
vt 0.034822 0.130620
vt 0.231551 0.130620
vt 0.197225 0.255106
vt 0.000496 0.255106
vt 0.358022 0.352823
vt 0.358022 0.156094
vt 0.487384 0.130620
vt 0.487384 0.327349
vt 0.232544 0.361675
vt 0.232544 0.164946
vt 0.357029 0.130620
vt 0.357029 0.327349
vt 0.747293 0.353816
vt 0.747293 0.485662
vt 0.618162 0.485663
vt 0.618161 0.353816
vt 0.485638 0.547120
vt 0.485638 0.362938
vt 0.617169 0.353816
vt 0.617169 0.537997
vt 0.469260 0.127120
vt 0.285078 0.127120
vt 0.259752 0.000496
vt 0.443933 0.000496
vt 0.225498 0.546849
vt 0.225499 0.362668
vt 0.357029 0.371790
vt 0.357029 0.555972
vt 0.000496 0.744973
vt 0.132343 0.744973
vt 0.132343 0.874104
vt 0.000496 0.874104
vt 0.357029 0.556965
vt 0.357029 0.693006
vt 0.225183 0.693006
vt 0.225183 0.556965
vt 0.747488 0.129628
vt 0.611447 0.129628
vt 0.611447 0.000496
vt 0.747488 0.000496
vt 0.136537 0.743980
vt 0.000496 0.743980
vt 0.000496 0.612133
vt 0.136537 0.612133
vt 0.745886 0.679959
vt 0.745886 0.548112
vt 0.875017 0.548112
vt 0.875017 0.679959
vt 0.000496 0.479294
vt 0.140698 0.479294
vt 0.140698 0.611141
vt 0.000496 0.611141
vt 0.488377 0.270822
vt 0.488377 0.130620
vt 0.620224 0.130620
vt 0.620224 0.270822
vt 0.485638 0.688314
vt 0.485638 0.548112
vt 0.614769 0.548112
vt 0.614769 0.688314
vt 0.482922 0.819431
vt 0.614769 0.819431
vt 0.614769 0.943838
vt 0.482923 0.943838
vt 0.747609 0.685146
vt 0.747609 0.814277
vt 0.615762 0.814277
vt 0.615762 0.685146
vt 0.225183 0.951245
vt 0.225183 0.826838
vt 0.357029 0.826838
vt 0.357029 0.951244
vt 0.479713 0.758564
vt 0.479713 0.823130
vt 0.355307 0.823130
vt 0.355307 0.693998
vt 0.479713 0.693998
vt 0.000496 0.999504
vt 0.000496 0.875097
vt 0.129628 0.875097
vt 0.129628 0.999504
vt 0.000496 0.129628
vt 0.000496 0.000496
vt 0.129628 0.000496
vt 0.258759 0.000496
vt 0.258759 0.129628
vt 0.194193 0.129628
vt 0.065062 0.129628
vt 0.753063 0.263460
vt 0.753063 0.328025
vt 0.621216 0.328026
vt 0.621216 0.263460
vt 0.488377 0.336380
vt 0.488377 0.271815
vt 0.620224 0.271815
vt 0.620224 0.336380
vn 0.0000 -0.0000 -1.0000
vn -0.0000 0.0000 1.0000
vn -1.0000 0.0000 -0.0000
vn 1.0000 0.0000 0.0000
vn -0.0000 0.0706 0.9975
vn 0.9626 0.2709 0.0000
vn 0.0000 -1.0000 0.0000
vn 0.0000 -0.2004 -0.9797
vn -0.9626 -0.2709 -0.0000
vn -0.0000 0.2004 0.9797
vn -0.9805 0.1966 -0.0000
vn 0.0000 -0.0706 -0.9975
vn 0.9805 -0.1966 0.0000
vn 0.0000 1.0000 -0.0000
usemtl Material
s off
f 8/1/1 7/2/1 34/3/1 3/4/1 6/5/1
f 4/6/1 8/7/1 6/8/1 17/9/1
f 1/10/1 5/11/1 8/12/1 4/13/1
f 5/14/1 2/15/1 35/16/1 7/17/1 8/18/1
f 13/19/2 10/20/2 15/21/2 16/22/2
f 9/23/2 13/24/2 16/25/2 14/26/2
f 1/27/3 9/28/3 14/29/3 5/30/3
f 5/31/1 27/32/1 26/33/1 2/34/1
f 6/35/4 15/36/4 10/37/4 17/38/4
f 9/39/5 24/40/5 25/41/5 13/42/5
f 15/43/2 33/44/2 32/45/2 12/46/2
f 10/47/6 20/48/6 18/49/6 17/50/6
f 18/51/7 20/52/7 21/53/7 19/54/7
f 17/55/8 18/56/8 19/57/8 4/58/8
f 4/59/9 19/60/9 21/61/9 13/62/9
f 13/63/10 21/64/10 20/65/10 10/66/10
f 23/67/7 25/68/7 24/69/7 22/70/7
f 1/71/11 22/72/11 24/73/11 9/74/11
f 4/75/12 23/76/12 22/77/12 1/78/12
f 13/79/13 25/80/13 23/81/13 4/82/13
f 27/83/3 29/84/3 28/85/3 26/86/3
f 2/87/14 26/88/14 28/89/14 11/90/14
f 11/91/2 28/92/2 29/93/2 14/94/2
f 14/95/7 29/96/7 27/97/7 5/98/7
f 30/99/4 32/100/4 33/101/4 31/102/4
f 6/103/7 31/104/7 33/105/7 15/106/7
f 12/107/14 32/108/14 30/109/14 3/110/14
f 3/111/1 30/112/1 31/113/1 6/114/1
f 35/115/3 37/116/3 41/117/3 39/118/3
f 41/119/14 40/120/14 38/121/14 39/122/14
f 34/123/4 38/124/4 40/125/4 36/126/4
f 7/127/1 35/128/1 39/129/1 38/130/1 34/131/1
f 41/132/2 37/133/2 36/134/2 40/135/2
f 11/136/2 14/137/2 16/138/2 15/139/2 12/140/2 36/141/2 37/142/2
f 11/143/14 37/144/14 35/145/14 2/146/14
f 3/147/14 34/148/14 36/149/14 12/150/14
