# Blender v2.79 (sub 0) OBJ File: 'pit.blend'
# www.blender.org
mtllib pit.mtl
o Plane
v 0.443033 0.000000 -3.177743
v 1.074801 0.000000 -2.291028
v 1.263833 0.000000 -1.800050
v 1.404296 0.000000 -1.239897
v 1.490793 0.000000 -0.632095
v 1.263834 0.000000 1.595306
v 0.849773 0.000000 2.081103
v 0.782178 0.000000 2.693962
v 0.000001 0.000000 3.240001
v -0.844467 0.000000 2.693963
v -1.164745 0.000000 2.291027
v -1.353776 0.000000 1.800048
v -1.494240 0.000000 1.239895
v -1.344857 0.000000 0.632093
v -1.263834 0.000000 -1.800047
v -0.581679 0.000000 -2.993368
vt 0.500000 1.000000
vt 0.691342 0.961940
vt 0.765663 0.845741
vt 0.827174 0.693295
vt 0.865234 0.501953
vt 0.827174 0.310611
vt 0.765663 0.138634
vt 0.691342 0.038060
vt 0.500000 0.000000
vt 0.308658 0.038060
vt 0.212853 0.080040
vt 0.104467 0.242252
vt 0.080078 0.505859
vt 0.094701 0.767514
vt 0.203087 0.929725
vt 0.308659 0.961940
vn 0.0000 1.0000 -0.0000
usemtl Material.001
s off
f 1/1/1 16/2/1 15/3/1 14/4/1 13/5/1 12/6/1 11/7/1 10/8/1 9/9/1 8/10/1 7/11/1 6/12/1 5/13/1 4/14/1 3/15/1 2/16/1
