# Blender v2.79 (sub 0) OBJ File: 'torch.blend'
# www.blender.org
mtllib torch.mtl
o Cube
v 0.005631 -2.702396 0.878818
v 0.005631 -0.006423 -0.362609
v 0.133857 -2.683795 0.928567
v 0.288474 0.034607 -0.252871
v 0.186971 -2.638890 1.048673
v 0.405631 0.133660 0.012060
v 0.133857 -2.593984 1.168780
v 0.288474 0.232714 0.276991
v 0.005631 -2.575383 1.218529
v 0.005631 0.273743 0.386729
v -0.122595 -2.593984 1.168780
v -0.277212 0.232714 0.276991
v -0.175709 -2.638890 1.048673
v -0.394369 0.133660 0.012060
v -0.122595 -2.683795 0.928567
v -0.277212 0.034607 -0.252871
v 0.508996 -0.939498 0.413297
v 0.406389 -0.912766 0.403303
v 0.406389 -1.592463 0.657431
v 0.508996 -1.565731 0.647436
v 0.361564 -1.064149 0.079905
v 0.289009 -1.012008 0.137870
v 0.289009 -1.691704 0.391998
v 0.361564 -1.690381 0.314043
v 0.005631 -1.115781 -0.058191
v 0.005631 -1.053115 0.027924
v 0.005631 -1.732811 0.282052
v 0.005631 -1.742013 0.175948
v -0.350302 -1.064149 0.079905
v -0.277748 -1.012008 0.137870
v -0.277748 -1.691704 0.391998
v -0.350302 -1.690381 0.314044
v -0.497734 -0.939498 0.413297
v -0.395127 -0.912766 0.403303
v -0.395127 -1.592463 0.657431
v -0.497734 -1.565731 0.647436
v -0.350302 -0.814848 0.746690
v -0.277748 -0.813525 0.668735
v -0.277748 -1.493222 0.922863
v -0.350302 -1.441081 0.980828
v 0.005631 -0.763216 0.884785
v 0.005631 -0.772418 0.778681
v 0.005631 -1.452115 1.032809
v 0.005631 -1.389449 1.118924
v 0.361564 -0.814848 0.746690
v 0.289009 -0.813525 0.668736
v 0.289009 -1.493222 0.922864
v 0.361564 -1.441081 0.980829
v 0.466731 0.137347 0.010681
v 0.383615 0.439004 -0.102104
v 0.363395 0.016223 0.055968
v 0.383615 -0.058635 0.083956
v 0.331678 0.023163 -0.294718
v 0.258609 0.169876 -0.271562
v 0.258609 -0.072372 -0.180990
v 0.272906 -0.152237 -0.166393
v 0.005631 -0.024134 -0.421218
v 0.005631 0.306632 -0.456151
v 0.005631 -0.109069 -0.279140
v 0.005631 -0.191008 -0.270091
v -0.320416 0.023163 -0.294718
v -0.247347 0.169876 -0.271562
v -0.247347 -0.072372 -0.180989
v -0.261644 -0.152237 -0.166393
v -0.455469 0.137347 0.010681
v -0.372353 0.439004 -0.102104
v -0.352133 0.016223 0.055968
v -0.372353 -0.058635 0.083956
v -0.320416 0.251531 0.316080
v -0.247347 0.347065 0.202352
v -0.247347 0.104818 0.292925
v -0.261644 0.034966 0.334305
v 0.005631 0.298827 0.442581
v 0.005631 0.571377 0.251943
v 0.005631 0.141515 0.391075
v 0.005631 0.073737 0.438003
v 0.331678 0.251531 0.316081
v 0.258608 0.347065 0.202352
v 0.258608 0.104818 0.292925
v 0.272906 0.034966 0.334305
v -0.420392 -1.687198 1.770918
v -0.420392 -0.492506 1.770918
v -0.420392 -1.687198 1.640672
v -0.420392 -0.492506 1.640672
v 0.415057 -1.687198 1.770918
v 0.415057 -0.492506 1.770918
v 0.415057 -1.687198 1.640672
v 0.415057 -0.492506 1.640672
v -0.097087 -1.186996 1.654349
v -0.096954 -0.981652 1.654136
v -0.097128 -1.187208 0.881938
v -0.096995 -0.981864 0.881726
v 0.108257 -1.187128 1.654308
v 0.108389 -0.981785 1.654096
v 0.108216 -1.187341 0.881898
v 0.108349 -0.981997 0.881685
vt 0.198920 0.058927
vt 0.213580 0.578728
vt 0.159942 0.578728
vt 0.174604 0.058927
vt 0.106390 0.575705
vt 0.150325 0.057556
vt 0.053094 0.569668
vt 0.126164 0.054820
vt 0.000223 0.560637
vt 0.102195 0.050726
vt 0.295029 0.045287
vt 0.425578 0.548641
vt 0.373299 0.560637
vt 0.271328 0.050726
vt 0.320428 0.569668
vt 0.247359 0.054820
vt 0.251507 0.616655
vt 0.251507 0.670292
vt 0.213579 0.708220
vt 0.159942 0.708219
vt 0.122015 0.670292
vt 0.122015 0.616655
vt 0.267132 0.575705
vt 0.223198 0.057556
vt 0.157410 0.041733
vt 0.157410 0.017417
vt 0.174604 0.000223
vt 0.198920 0.000223
vt 0.216114 0.017417
vt 0.216114 0.041733
vt 0.400613 0.876135
vt 0.341964 0.876135
vt 0.341964 0.832093
vt 0.400613 0.832093
vt 0.999777 0.281148
vt 0.999777 0.334887
vt 0.872643 0.334887
vt 0.872643 0.281148
vt 0.400613 0.986074
vt 0.341964 0.986074
vt 0.341964 0.961757
vt 0.400613 0.961757
vt 0.283437 0.876135
vt 0.283437 0.832093
vt 0.999777 0.388625
vt 0.872643 0.388625
vt 0.283437 0.986074
vt 0.283437 0.961757
vt 0.216443 0.876135
vt 0.216443 0.832093
vt 0.999777 0.442364
vt 0.872643 0.442364
vt 0.216443 0.986074
vt 0.216443 0.961757
vt 0.145866 0.876135
vt 0.145866 0.832093
vt 0.999777 0.496103
vt 0.872643 0.496103
vt 0.145866 0.986074
vt 0.145866 0.961757
vt 0.083433 0.876135
vt 0.083433 0.832093
vt 0.999777 0.549842
vt 0.872643 0.549842
vt 0.083433 0.986074
vt 0.083433 0.961757
vt 0.009040 0.876135
vt 0.009040 0.832093
vt 0.999777 0.603581
vt 0.872643 0.603581
vt 0.009040 0.986074
vt 0.009040 0.961757
vt 0.527793 0.876135
vt 0.460635 0.876135
vt 0.460635 0.832093
vt 0.527793 0.832093
vt 0.999777 0.173670
vt 0.999777 0.227409
vt 0.872643 0.227409
vt 0.872643 0.173670
vt 0.527793 0.986074
vt 0.460635 0.986074
vt 0.460635 0.961757
vt 0.527793 0.961757
vt 0.738662 0.258193
vt 0.688523 0.258179
vt 0.690246 0.231248
vt 0.742889 0.207556
vt 0.545724 0.034240
vt 0.578092 0.079979
vt 0.565108 0.122570
vt 0.518692 0.106862
vt 0.560695 0.136286
vt 0.513539 0.120051
vt 0.736737 0.293811
vt 0.687792 0.293752
vt 0.636423 0.252381
vt 0.639205 0.196204
vt 0.631525 0.058706
vt 0.613123 0.136191
vt 0.609522 0.150348
vt 0.635723 0.292035
vt 0.580822 0.254317
vt 0.581719 0.224389
vt 0.670364 0.101222
vt 0.662535 0.146353
vt 0.659777 0.160925
vt 0.581375 0.293868
vt 0.522737 0.249783
vt 0.523891 0.187479
vt 0.722244 0.072704
vt 0.713269 0.154125
vt 0.711425 0.169034
vt 0.523461 0.293961
vt 0.460735 0.253511
vt 0.461392 0.220643
vt 0.767301 0.111224
vt 0.764814 0.158033
vt 0.764088 0.173225
vt 0.462975 0.298176
vt 0.390342 0.248664
vt 0.401238 0.177361
vt 0.818270 0.077846
vt 0.815151 0.158340
vt 0.816554 0.173225
vt 0.397371 0.301479
vt 0.836516 0.267398
vt 0.785816 0.265290
vt 0.787978 0.240671
vt 0.835262 0.215084
vt 0.462983 0.000223
vt 0.491555 0.048337
vt 0.474214 0.088215
vt 0.433057 0.067888
vt 0.468342 0.100698
vt 0.426023 0.079124
vt 0.828315 0.301480
vt 0.783471 0.297235
vt 0.657628 0.537602
vt 0.657628 0.746914
vt 0.634586 0.746914
vt 0.634586 0.537602
vt 0.488215 0.746913
vt 0.488215 0.537602
vt 0.465396 0.746913
vt 0.465396 0.537602
vt 0.804222 0.537602
vt 0.804222 0.746914
vt 0.488215 0.514783
vt 0.634586 0.514783
vt 0.634586 0.769732
vt 0.488215 0.769732
vt 0.587711 0.863986
vt 0.587738 0.828010
vt 0.723065 0.828010
vt 0.723038 0.863986
vt 0.723517 0.864433
vt 0.759493 0.864435
vt 0.759492 0.900411
vt 0.723515 0.900409
vt 0.723043 0.899963
vt 0.723070 0.935939
vt 0.587743 0.935939
vt 0.587716 0.899963
vt 0.759493 0.828012
vt 0.759492 0.863988
vt 0.723515 0.863986
vt 0.723517 0.828010
vt 0.723065 0.971915
vt 0.587738 0.971915
vn 0.3818 -0.3866 -0.8395
vn 0.9217 -0.1975 -0.3338
vn 0.9217 0.0699 0.3815
vn 0.3818 0.2590 0.8872
vn -0.3818 0.2590 0.8872
vn -0.9217 0.0699 0.3815
vn 0.0000 0.9367 -0.3502
vn -0.9217 -0.1975 -0.3338
vn -0.3818 -0.3866 -0.8395
vn 0.0000 -0.9367 0.3502
vn 0.2663 0.8583 -0.4387
vn -0.9239 0.1340 0.3584
vn 0.2663 -0.9355 0.2320
vn 0.9239 -0.1340 -0.3584
vn 0.1103 0.8036 -0.5848
vn -0.3827 0.3235 0.8654
vn 0.1103 -0.9902 0.0859
vn 0.3827 -0.3235 -0.8654
vn -0.1103 0.8036 -0.5848
vn 0.3827 0.3235 0.8654
vn -0.1103 -0.9902 0.0859
vn -0.3827 -0.3235 -0.8654
vn -0.2663 0.8583 -0.4387
vn 0.9239 0.1340 0.3584
vn -0.2663 -0.9355 0.2320
vn -0.9239 -0.1340 -0.3584
vn -0.2663 0.9355 -0.2320
vn -0.2663 -0.8583 0.4387
vn -0.1103 0.9902 -0.0859
vn -0.1103 -0.8036 0.5848
vn 0.1103 0.9902 -0.0859
vn 0.1103 -0.8036 0.5848
vn 0.2663 0.9355 -0.2320
vn 0.2663 -0.8583 0.4387
vn 0.8028 0.1651 -0.5729
vn -0.9139 0.1663 0.3704
vn -0.8996 -0.0827 0.4287
vn 0.8673 -0.4485 -0.2158
vn 0.4788 0.0517 -0.8764
vn -0.4051 0.3444 0.8469
vn -0.3726 0.1019 0.9224
vn 0.3593 -0.6265 -0.6917
vn -0.4788 0.0517 -0.8764
vn 0.4051 0.3444 0.8469
vn 0.3726 0.1019 0.9224
vn -0.3593 -0.6265 -0.6917
vn -0.8028 0.1651 -0.5729
vn 0.9139 0.1663 0.3704
vn 0.8996 -0.0827 0.4287
vn -0.8673 -0.4485 -0.2158
vn -0.8028 0.5005 0.3241
vn 0.9139 -0.1175 -0.3886
vn 0.8996 -0.3437 -0.2693
vn -0.8673 -0.1969 0.4572
vn -0.4788 0.6139 0.6275
vn 0.4051 -0.2957 -0.8651
vn 0.3726 -0.5282 -0.7630
vn -0.3593 -0.0190 0.9330
vn 0.4788 0.6140 0.6275
vn -0.4051 -0.2957 -0.8651
vn -0.3726 -0.5282 -0.7630
vn 0.3593 -0.0190 0.9330
vn 0.8028 0.5005 0.3241
vn -0.9139 -0.1175 -0.3886
vn -0.8996 -0.3437 -0.2693
vn 0.8673 -0.1969 0.4572
vn -1.0000 0.0000 0.0000
vn 0.0000 0.0000 -1.0000
vn 1.0000 0.0000 0.0000
vn 0.0000 0.0000 1.0000
vn 0.0000 -1.0000 0.0000
vn 0.0000 1.0000 0.0000
vn -1.0000 0.0006 0.0001
vn -0.0002 -0.0010 -1.0000
vn 1.0000 -0.0006 -0.0001
vn 0.0002 0.0010 1.0000
vn -0.0006 -1.0000 0.0003
vn 0.0006 1.0000 -0.0003
usemtl Material
s off
f 1/1/1 2/2/1 4/3/1 3/4/1
f 3/4/2 4/3/2 6/5/2 5/6/2
f 5/6/3 6/5/3 8/7/3 7/8/3
f 7/8/4 8/7/4 10/9/4 9/10/4
f 9/11/5 10/12/5 12/13/5 11/14/5
f 11/14/6 12/13/6 14/15/6 13/16/6
f 4/3/7 2/2/7 16/17/7 14/18/7 12/19/7 10/20/7 8/21/7 6/22/7
f 13/16/8 14/15/8 16/23/8 15/24/8
f 15/24/9 16/23/9 2/2/9 1/1/9
f 1/1/10 3/4/10 5/25/10 7/26/10 9/27/10 11/28/10 13/29/10 15/30/10
f 17/31/11 21/32/11 22/33/11 18/34/11
f 18/35/12 22/36/12 23/37/12 19/38/12
f 19/39/13 23/40/13 24/41/13 20/42/13
f 20/42/14 24/41/14 21/32/14 17/31/14
f 21/32/15 25/43/15 26/44/15 22/33/15
f 22/36/16 26/45/16 27/46/16 23/37/16
f 23/40/17 27/47/17 28/48/17 24/41/17
f 24/41/18 28/48/18 25/43/18 21/32/18
f 25/43/19 29/49/19 30/50/19 26/44/19
f 26/45/20 30/51/20 31/52/20 27/46/20
f 27/47/21 31/53/21 32/54/21 28/48/21
f 28/48/22 32/54/22 29/49/22 25/43/22
f 29/49/23 33/55/23 34/56/23 30/50/23
f 30/51/24 34/57/24 35/58/24 31/52/24
f 31/53/25 35/59/25 36/60/25 32/54/25
f 32/54/26 36/60/26 33/55/26 29/49/26
f 33/55/27 37/61/27 38/62/27 34/56/27
f 34/57/14 38/63/14 39/64/14 35/58/14
f 35/59/28 39/65/28 40/66/28 36/60/28
f 36/60/12 40/66/12 37/61/12 33/55/12
f 37/61/29 41/67/29 42/68/29 38/62/29
f 38/63/18 42/69/18 43/70/18 39/64/18
f 39/65/30 43/71/30 44/72/30 40/66/30
f 40/66/16 44/72/16 41/67/16 37/61/16
f 41/73/31 45/74/31 46/75/31 42/76/31
f 42/77/22 46/78/22 47/79/22 43/80/22
f 43/81/32 47/82/32 48/83/32 44/84/32
f 44/84/20 48/83/20 45/74/20 41/73/20
f 45/74/33 17/31/33 18/34/33 46/75/33
f 46/78/26 18/35/26 19/38/26 47/79/26
f 47/82/34 19/39/34 20/42/34 48/83/34
f 48/83/24 20/42/24 17/31/24 45/74/24
f 49/85/35 53/86/35 54/87/35 50/88/35
f 50/89/36 54/90/36 55/91/36 51/92/36
f 51/92/37 55/91/37 56/93/37 52/94/37
f 52/95/38 56/96/38 53/86/38 49/85/38
f 53/86/39 57/97/39 58/98/39 54/87/39
f 54/90/40 58/99/40 59/100/40 55/91/40
f 55/91/41 59/100/41 60/101/41 56/93/41
f 56/96/42 60/102/42 57/97/42 53/86/42
f 57/97/43 61/103/43 62/104/43 58/98/43
f 58/99/44 62/105/44 63/106/44 59/100/44
f 59/100/45 63/106/45 64/107/45 60/101/45
f 60/102/46 64/108/46 61/103/46 57/97/46
f 61/103/47 65/109/47 66/110/47 62/104/47
f 62/105/48 66/111/48 67/112/48 63/106/48
f 63/106/49 67/112/49 68/113/49 64/107/49
f 64/108/50 68/114/50 65/109/50 61/103/50
f 65/109/51 69/115/51 70/116/51 66/110/51
f 66/111/52 70/117/52 71/118/52 67/112/52
f 67/112/53 71/118/53 72/119/53 68/113/53
f 68/114/54 72/120/54 69/115/54 65/109/54
f 69/115/55 73/121/55 74/122/55 70/116/55
f 70/117/56 74/123/56 75/124/56 71/118/56
f 71/118/57 75/124/57 76/125/57 72/119/57
f 72/120/58 76/126/58 73/121/58 69/115/58
f 73/127/59 77/128/59 78/129/59 74/130/59
f 74/131/60 78/132/60 79/133/60 75/134/60
f 75/134/61 79/133/61 80/135/61 76/136/61
f 76/137/62 80/138/62 77/128/62 73/127/62
f 77/128/63 49/85/63 50/88/63 78/129/63
f 78/132/64 50/89/64 51/92/64 79/133/64
f 79/133/65 51/92/65 52/94/65 80/135/65
f 80/138/66 52/95/66 49/85/66 77/128/66
f 81/139/67 82/140/67 84/141/67 83/142/67
f 83/142/68 84/141/68 88/143/68 87/144/68
f 87/144/69 88/143/69 86/145/69 85/146/69
f 85/147/70 86/148/70 82/140/70 81/139/70
f 83/142/71 87/144/71 85/149/71 81/150/71
f 88/143/72 84/141/72 82/151/72 86/152/72
f 89/153/73 90/154/73 92/155/73 91/156/73
f 91/157/74 92/158/74 96/159/74 95/160/74
f 95/161/75 96/162/75 94/163/75 93/164/75
f 93/165/76 94/166/76 90/167/76 89/168/76
f 91/156/77 95/161/77 93/164/77 89/153/77
f 96/162/78 92/169/78 90/170/78 94/163/78
